<svg xmlns="http://www.w3.org/2000/svg" viewBox="0 0 200 200">
  <defs>
    <linearGradient id="bg" x1="0" x2="1" y1="0" y2="1">
      <stop stop-color="#c283ff"/>
      <stop offset="1" stop-color="#351c57"/>
    </linearGradient>
  </defs>
  <circle cx="100" cy="100" r="96" fill="url(#bg)"/>
  <path d="M52 179c8-46 28-69 48-69s40 23 48 69z" fill="#242032"/>
  <circle cx="100" cy="106" r="52" fill="#eeb78e"/>
  <path d="M44 93c12-51 94-67 122-16l-19 14-17-24-30 24-23-24-22 28z" fill="#171525"/>
  <path d="M55 87h90v23H55z" fill="#27203c"/>
  <circle cx="77" cy="118" r="6" fill="#6d1d38"/>
  <circle cx="123" cy="118" r="6" fill="#6d1d38"/>
  <path d="M80 144c13 7 27 7 40 0" fill="none" stroke="#8c3b52" stroke-width="5"/>
  <path d="M60 115l-18 4M140 115l18 4" stroke="#af5964" stroke-width="4"/>
</svg>
